<svg version="1.1" id="Layer_1" xmlns="http://www.w3.org/2000/svg" xmlns:xlink="http://www.w3.org/1999/xlink" x="0px" y="0px"
	 width="100%" viewBox="0 0 385 107" enable-background="new 0 0 385 107" xml:space="preserve">
<path fill="#F9F9F9" opacity="1.000000" stroke="none" 
	d="
M253.000000,108.000000 
	C168.666687,108.000000 84.833374,108.000000 1.000045,108.000000 
	C1.000030,72.333359 1.000030,36.666725 1.000015,1.000064 
	C129.333267,1.000043 257.666534,1.000043 385.999878,1.000021 
	C385.999908,36.666599 385.999908,72.333199 385.999939,107.999893 
	C341.833344,108.000000 297.666656,108.000000 253.000000,108.000000 
M92.660744,19.669418 
	C87.243881,19.663157 81.553528,18.577106 76.464714,19.866030 
	C64.305756,22.945715 57.868767,33.864994 58.884907,47.651005 
	C59.743481,59.299297 68.168533,68.643181 79.274429,70.264175 
	C92.934052,72.257904 104.868370,65.949921 109.215179,54.244617 
	C109.678452,52.997070 109.047432,51.343147 108.924065,49.877743 
	C107.614700,50.739319 106.215965,51.496418 105.034370,52.507328 
	C104.458931,52.999645 104.347321,54.000389 103.926453,54.712276 
	C99.259102,62.606949 92.327454,66.353989 83.170357,65.925278 
	C75.415283,65.562210 69.460609,62.174599 65.913780,55.148273 
	C60.317841,44.062626 64.402008,30.564802 74.794121,25.424667 
	C86.013649,19.875282 99.159035,24.807285 105.006859,36.578079 
	C105.647324,37.867210 107.396652,38.605446 108.631668,39.599197 
	C108.830170,38.014702 109.610962,36.221779 109.130753,34.880230 
	C106.425743,27.323195 100.728676,22.719336 92.660744,19.669418 
M295.436401,69.214539 
	C298.696564,69.480728 301.956207,69.965935 305.217010,69.973946 
	C317.244324,70.003494 324.799957,58.672157 320.540039,47.445766 
	C319.888855,45.729683 319.922821,43.357670 320.550323,41.617290 
	C324.328186,31.139372 318.314087,20.360901 307.536224,19.379179 
	C301.425812,18.822601 295.222717,19.025097 289.080048,19.301296 
	C287.859650,19.356171 285.718719,21.286781 285.701508,22.379162 
	C285.468445,37.189190 285.487183,52.004417 285.633118,66.816505 
	C285.643250,67.848015 287.148041,68.864799 287.957794,69.888420 
	C288.663696,68.772514 289.962555,67.666939 289.982178,66.539078 
	C290.147369,57.054401 290.078491,47.565639 290.079559,38.078110 
	C290.080078,33.478329 290.079651,28.878544 290.079651,24.025126 
	C295.616180,24.025126 300.590851,23.870859 305.552612,24.058329 
	C314.906433,24.411745 319.899536,33.316914 315.265656,41.476593 
	C313.972473,43.753670 313.730011,45.267498 315.265411,47.689854 
	C320.039062,55.221058 315.011078,64.586800 306.155151,65.083176 
	C303.499664,65.232010 300.763214,64.797432 298.196960,65.304207 
	C296.962189,65.548058 296.036743,67.358475 295.436401,69.214539 
M364.095978,32.526108 
	C364.081757,39.021019 364.117767,45.516552 364.037537,52.010647 
	C363.972717,57.256870 361.643982,61.267433 357.047485,63.856281 
	C346.886383,69.579254 335.203461,63.043240 334.984619,51.395798 
	C334.809448,42.072651 335.026123,32.742062 334.842133,23.419241 
	C334.815247,22.057404 333.527130,20.720457 332.822601,19.372004 
	C331.928192,20.348717 330.255219,21.327921 330.258331,22.301758 
	C330.294495,33.610138 329.945099,44.978504 331.013916,56.205685 
	C331.825043,64.725761 340.340851,70.488548 349.511261,70.467056 
	C358.412842,70.446182 367.045593,64.781662 367.853180,56.614094 
	C368.978851,45.229496 368.635590,33.694511 368.729431,22.222326 
	C368.737366,21.253815 367.299683,20.273479 366.533600,19.298624 
	C365.724884,20.381367 364.350098,21.399763 364.218262,22.559446 
	C363.881805,25.519382 364.099792,28.542339 364.095978,32.526108 
M243.000610,63.590618 
	C247.781693,51.581055 252.562775,39.571487 257.650696,26.791216 
	C258.655792,29.144646 259.333160,30.640064 259.939056,32.163906 
	C264.410950,43.411236 268.798828,54.693089 273.422058,65.877708 
	C273.979584,67.226547 275.786346,68.059013 277.014160,69.130806 
	C277.291809,67.575493 278.233459,65.762802 277.745636,64.504189 
	C272.113159,49.972687 266.298309,35.511181 260.410522,21.080624 
	C259.919617,19.877443 258.548889,19.033243 257.586975,18.022251 
	C256.688232,19.106493 255.448395,20.052134 254.942886,21.296165 
	C249.137985,35.581734 243.390839,49.891739 237.810135,64.265831 
	C237.288742,65.608719 238.007675,67.433144 238.150726,69.033997 
	C239.424255,68.075317 240.757034,67.182884 241.940918,66.123970 
	C242.388062,65.724014 242.491013,64.939278 243.000610,63.590618 
M146.241776,24.057362 
	C145.646088,23.049543 145.161530,21.263203 144.436783,21.159758 
	C139.589767,20.467955 134.572128,19.256281 129.839081,19.899584 
	C123.396271,20.775267 119.330544,25.417267 118.030670,31.855474 
	C116.678444,38.553024 118.929436,44.015923 124.844101,47.637531 
	C127.229057,49.097874 129.924408,50.042542 132.376114,51.406002 
	C133.770935,52.181690 134.958969,53.329216 136.873581,54.793903 
	C131.336426,57.305214 127.291679,56.001713 123.129303,54.092937 
	C121.897499,53.528061 120.106941,54.181644 118.572426,54.276878 
	C119.403206,55.496521 119.993309,57.432655 121.108009,57.807102 
	C125.126633,59.157032 129.346527,60.807774 133.441254,60.686401 
	C135.815628,60.616024 139.073792,57.829906 140.177261,55.450935 
	C141.635132,52.307915 139.341537,49.503002 136.156403,47.957668 
	C133.180267,46.513733 130.016876,45.358307 127.266243,43.568268 
	C122.230835,40.291363 121.014549,35.366009 123.494629,30.126707 
	C126.002724,24.828228 131.981094,22.798105 139.452530,24.431190 
	C141.547241,24.889050 143.795792,24.643164 146.241776,24.057362 
M162.296783,39.895031 
	C159.027466,30.992220 164.186325,23.642036 173.622391,23.984680 
	C176.245148,24.079920 178.831635,25.027370 181.459518,25.194426 
	C182.627594,25.268682 183.857101,24.377010 185.058716,23.923773 
	C184.235382,22.901901 183.596420,21.302477 182.553192,20.969461 
	C179.736572,20.070347 176.765305,19.347324 173.824097,19.206072 
	C165.729492,18.817318 159.000305,23.533777 157.028824,30.592016 
	C154.944656,38.053753 157.611649,44.186039 165.046356,48.587132 
	C167.031815,49.762447 169.344528,50.378838 171.355927,51.518482 
	C172.681564,52.269585 173.737030,53.497532 175.546509,55.057846 
	C169.575317,57.192291 165.359116,55.913353 161.127945,53.626171 
	C160.236374,53.144222 158.638657,53.968628 157.366302,54.191097 
	C157.880173,55.239132 158.146103,56.907112 158.950455,57.228790 
	C162.598297,58.687641 166.323502,60.186386 170.163361,60.868301 
	C174.273514,61.598209 177.977798,60.085964 179.061523,55.595493 
	C180.121307,51.204178 177.121658,49.102737 173.610886,47.248032 
	C169.857193,45.264992 166.376007,42.766117 162.296783,39.895031 
M131.852493,34.459034 
	C135.094543,34.504932 138.343491,34.688171 141.575043,34.525574 
	C142.778748,34.465004 143.941742,33.595848 145.123306,33.095409 
	C144.454102,32.118137 143.945770,30.492535 143.086960,30.279446 
	C139.915176,29.492447 136.464539,28.345482 133.435806,28.942480 
	C131.078522,29.407131 128.006104,31.965858 127.461189,34.146172 
	C127.000854,35.988049 129.259598,39.150265 131.140472,40.768673 
	C133.321335,42.645233 136.473389,43.347721 139.080017,44.784534 
	C144.176407,47.593746 146.007217,51.340107 145.003540,56.711506 
	C144.053894,61.793579 140.583984,64.901131 135.790863,65.047432 
	C131.159607,65.188789 126.492325,63.648991 121.814148,63.059883 
	C120.409607,62.883011 118.915512,63.417179 117.462448,63.625610 
	C118.222878,64.818039 118.782181,66.818558 119.777718,67.066338 
	C124.711372,68.294304 129.779175,69.906296 134.764084,69.794579 
	C142.758636,69.615410 147.834183,64.945160 149.490997,58.000404 
	C151.330231,50.291065 147.895020,44.116322 139.376740,39.633839 
	C136.800690,38.278271 134.326691,36.728771 131.852493,34.459034 
M177.243759,39.165310 
	C174.842804,37.998875 172.441833,36.832439 170.040878,35.666004 
	C170.160858,35.032986 170.280823,34.399971 170.400803,33.766953 
	C172.325119,33.609390 174.263199,33.239735 176.169266,33.363365 
	C177.616959,33.457256 179.026749,34.524940 180.448181,34.513493 
	C181.625198,34.504013 182.794601,33.550858 183.967377,33.015808 
	C183.261551,32.063927 182.708221,30.488998 181.822479,30.272198 
	C178.644043,29.494225 175.229340,28.424915 172.146133,28.933586 
	C169.898605,29.304382 166.586746,31.814819 166.367218,33.679588 
	C166.101898,35.933331 168.109039,39.050613 170.033875,40.805969 
	C172.145325,42.731529 175.322037,43.457466 177.965973,44.837563 
	C182.616119,47.264877 184.749268,51.135529 183.879898,56.350269 
	C183.044022,61.363953 179.759277,64.783691 174.920624,64.966286 
	C170.129532,65.147087 165.288712,63.595287 160.443695,63.024117 
	C159.058746,62.860847 157.583298,63.464962 156.149353,63.717197 
	C156.991760,64.898964 157.577652,66.661827 158.719269,67.165756 
	C164.930359,69.907478 171.384644,71.152100 178.104218,68.996323 
	C185.718796,66.553406 189.822662,59.283180 188.342010,51.346195 
	C187.199722,45.222961 182.886124,42.131672 177.243759,39.165310 
M100.119896,50.256084 
	C102.672287,41.352310 99.733063,33.649933 92.336662,29.859737 
	C85.271225,26.239143 77.117172,27.876106 72.248886,34.252686 
	C71.339897,35.443310 71.704910,37.606586 71.481979,39.320992 
	C72.778534,38.716354 74.420715,38.428745 75.314331,37.454514 
	C80.307526,32.010845 87.489685,31.266438 92.551834,35.876179 
	C97.655220,40.523479 97.765030,48.332466 92.794983,53.168991 
	C87.870003,57.961674 80.923347,57.350189 75.632736,51.930817 
	C74.605797,50.878880 72.711861,50.673347 71.217842,50.077396 
	C71.530594,51.675987 71.364731,53.620682 72.231171,54.818890 
	C79.745323,65.210289 95.612801,61.978081 100.119896,50.256084 
M359.120636,52.917313 
	C359.202087,43.109016 359.379608,33.299500 359.255127,23.493822 
	C359.237671,22.119638 357.739655,20.764248 356.926971,19.400143 
	C356.249115,20.876743 355.018097,22.341015 354.984894,23.831993 
	C354.795929,32.309544 354.849579,40.793793 354.912659,49.275078 
	C354.940582,53.025421 353.981842,56.145016 349.661285,56.236801 
	C344.978302,56.336292 344.095825,53.018703 344.124207,49.098846 
	C344.185638,40.617535 344.246887,32.132935 344.040863,23.656179 
	C344.005981,22.220806 342.637207,20.817856 341.884735,19.399925 
	C341.155518,20.838179 339.827454,22.263119 339.795135,23.716856 
	C339.599274,32.526852 339.622528,41.344326 339.726776,50.157478 
	C339.798004,56.179405 342.607574,59.886364 347.442780,60.801727 
	C352.675934,61.792431 356.523438,59.455456 359.120636,52.917313 
M46.303295,29.776215 
	C44.104885,33.302845 41.854752,36.798653 39.727562,40.367733 
	C38.463245,42.489056 36.543026,44.669399 36.393692,46.921093 
	C35.942719,53.720844 36.106117,60.571747 36.316185,67.393906 
	C36.348362,68.438858 37.894108,69.437202 38.739830,70.457108 
	C39.494656,69.373421 40.841312,68.321274 40.901031,67.200546 
	C41.148880,62.549557 41.226669,57.864647 40.945370,53.217705 
	C40.691822,49.029175 41.793335,45.522358 44.131668,42.055191 
	C48.125492,36.133350 51.856651,30.023874 55.432369,23.839544 
	C56.134102,22.625872 55.631042,20.715603 55.683643,19.126608 
	C54.285164,19.943310 52.511021,20.459887 51.567894,21.640383 
	C49.712761,23.962412 48.319286,26.653269 46.303295,29.776215 
M24.135273,42.505554 
	C25.119137,45.893101 26.583094,49.227306 26.966848,52.681522 
	C27.460331,57.123421 26.904055,61.673321 27.190775,66.151680 
	C27.285658,67.633698 28.590427,69.038246 29.342024,70.478218 
	C30.195866,68.966965 31.704571,67.490135 31.786152,65.938286 
	C32.083019,60.291397 31.982122,54.617577 31.851181,48.958076 
	C31.814260,47.362408 31.531303,45.558632 30.731108,44.229698 
	C26.103039,36.543583 21.375807,28.912088 16.439432,21.422064 
	C15.678021,20.266766 13.662835,19.937780 12.227479,19.226654 
	C12.384910,20.842234 12.042830,22.748423 12.784870,24.023886 
	C16.293697,30.055058 20.098890,35.913807 24.135273,42.505554 
M201.579803,23.302750 
	C200.760696,22.098377 199.941574,20.894005 199.122437,19.689631 
	C198.381439,21.103811 197.019958,22.508295 196.997681,23.933712 
	C196.821106,35.232460 196.898605,46.535191 196.899750,57.836697 
	C196.900055,60.828255 196.727676,63.836708 197.008331,66.802032 
	C197.104050,67.813431 198.345200,68.716415 199.062973,69.668938 
	C199.880081,68.789520 200.993851,68.034348 201.429092,66.995010 
	C201.846756,65.997665 201.580780,64.705719 201.581192,63.543224 
	C201.585800,50.413532 201.583862,37.283840 201.579803,23.302750 
M206.003403,45.499962 
	C206.003616,52.165012 205.864441,58.835312 206.114822,65.490952 
	C206.168655,66.921982 207.629974,68.300072 208.442947,69.702553 
	C209.232407,68.403610 210.693085,67.112442 210.708221,65.804535 
	C210.872192,51.643215 210.870941,37.478516 210.698013,23.317387 
	C210.683151,22.100212 209.118622,20.901962 208.273972,19.694927 
	C207.517624,20.964979 206.147217,22.216034 206.107254,23.508247 
	C205.890930,30.499874 206.003922,37.501690 206.003403,45.499962 
M44.203899,18.955156 
	C42.851318,19.923508 41.125015,20.628735 40.220909,21.912842 
	C38.080853,24.952360 36.331322,28.266842 34.048916,32.099918 
	C31.465599,27.795851 29.418489,24.060640 27.000875,20.582998 
	C26.388645,19.702333 24.595381,19.642706 23.344814,19.205805 
	C23.247185,20.406597 22.649672,21.883183 23.134785,22.762466 
	C25.849642,27.683208 28.782249,32.486637 31.732220,37.273598 
	C33.125710,39.534840 34.833164,39.744343 36.304810,37.340763 
	C39.326950,32.404819 42.321819,27.448483 45.143967,22.397753 
	C45.566975,21.640703 44.995274,20.327848 44.203899,18.955156 
M309.956055,30.547855 
	C306.173248,29.844555 302.410645,28.915949 298.595459,28.573111 
	C297.427307,28.468140 296.114777,29.970026 294.868347,30.736053 
	C296.210358,31.560919 297.472900,32.599800 298.921448,33.137726 
	C299.939087,33.515636 301.293610,32.943691 302.348816,33.272995 
	C304.024872,33.796047 305.576599,34.717419 307.180939,35.470306 
	C305.793549,36.250237 304.369293,36.972523 303.030975,37.829121 
	C302.037750,38.464851 301.156097,39.274952 300.224762,40.007378 
	C301.261047,40.852501 302.453003,42.540199 303.304077,42.382950 
	C305.744385,41.932060 308.575897,41.296722 310.278351,39.696388 
	C312.797150,37.328621 312.664551,34.052753 309.956055,30.547855 
M303.674164,60.874424 
	C308.217590,60.796028 311.539825,59.005138 311.932556,54.103809 
	C312.222412,50.486195 310.121216,47.878784 306.697449,47.228924 
	C303.643402,46.649242 300.395630,46.896378 297.254364,47.100780 
	C296.427429,47.154587 295.678162,48.401501 294.893219,49.100533 
	C295.743073,49.899670 296.485443,51.171001 297.466370,51.394192 
	C299.210236,51.790974 301.162506,51.270832 302.906952,51.666344 
	C304.396057,52.003956 305.715851,53.088333 307.110535,53.842381 
	C305.854675,54.553303 304.586060,55.242893 303.346802,55.981674 
	C302.289948,56.611713 301.266815,57.298328 300.228760,57.959919 
	C301.112732,58.927578 301.996674,59.895237 303.674164,60.874424 
M260.115509,65.176895 
	C261.297821,65.556183 262.559113,65.784760 263.642578,66.352654 
	C265.018250,67.073700 266.249603,68.070015 267.543182,68.947647 
	C267.549011,67.173607 268.090118,65.143990 267.401398,63.701557 
	C266.783722,62.407837 264.879639,61.102203 263.426483,60.955402 
	C259.645721,60.573448 255.799088,60.751865 251.982315,60.848412 
	C249.140121,60.920300 246.271088,64.585892 246.890076,67.329697 
	C247.041443,68.000748 247.717148,68.863731 248.323959,69.037643 
	C248.976868,69.224762 250.380676,68.883148 250.515518,68.467140 
	C252.081131,63.636612 256.069824,65.525032 260.115509,65.176895 
M259.543457,44.183849 
	C258.543549,44.047485 257.543671,43.911118 256.543762,43.774754 
	C256.543762,46.205154 256.543762,48.635555 256.543762,50.484928 
	C254.946686,51.706615 253.536789,52.785122 252.126892,53.863632 
	C253.857895,54.644135 255.560822,56.015945 257.324921,56.099743 
	C263.917969,56.412910 264.319946,55.588005 261.611389,48.932850 
	C261.051971,47.558353 260.479034,46.189350 259.543457,44.183849 
M67.260811,88.293732 
	C66.094521,87.335579 64.928238,86.377434 63.246307,84.995659 
	C65.089127,90.735626 66.425720,91.154373 71.249870,87.460381 
	C69.620918,87.775352 68.743690,87.944977 67.260811,88.293732 
z"/>
<path fill="#1E1E1E" opacity="1.000000" stroke="none" 
	d="
M93.037567,19.784065 
	C100.728676,22.719336 106.425743,27.323195 109.130753,34.880230 
	C109.610962,36.221779 108.830170,38.014702 108.631668,39.599197 
	C107.396652,38.605446 105.647324,37.867210 105.006859,36.578079 
	C99.159035,24.807285 86.013649,19.875282 74.794121,25.424667 
	C64.402008,30.564802 60.317841,44.062626 65.913780,55.148273 
	C69.460609,62.174599 75.415283,65.562210 83.170357,65.925278 
	C92.327454,66.353989 99.259102,62.606949 103.926453,54.712276 
	C104.347321,54.000389 104.458931,52.999645 105.034370,52.507328 
	C106.215965,51.496418 107.614700,50.739319 108.924065,49.877747 
	C109.047432,51.343147 109.678452,52.997070 109.215179,54.244617 
	C104.868370,65.949921 92.934052,72.257904 79.274429,70.264175 
	C68.168533,68.643181 59.743481,59.299297 58.884907,47.651005 
	C57.868767,33.864994 64.305756,22.945715 76.464714,19.866030 
	C81.553528,18.577106 87.243881,19.663157 93.037567,19.784065 
z"/>
<path fill="#1A1A1A" opacity="1.000000" stroke="none" 
	d="
M295.203796,68.837013 
	C296.036743,67.358475 296.962189,65.548058 298.196960,65.304207 
	C300.763214,64.797432 303.499664,65.232010 306.155151,65.083176 
	C315.011078,64.586800 320.039062,55.221058 315.265411,47.689854 
	C313.730011,45.267498 313.972473,43.753670 315.265656,41.476593 
	C319.899536,33.316914 314.906433,24.411745 305.552612,24.058329 
	C300.590851,23.870859 295.616180,24.025126 290.079651,24.025126 
	C290.079651,28.878544 290.080078,33.478329 290.079559,38.078110 
	C290.078491,47.565639 290.147369,57.054401 289.982178,66.539078 
	C289.962555,67.666939 288.663696,68.772514 287.957794,69.888428 
	C287.148041,68.864799 285.643250,67.848015 285.633118,66.816505 
	C285.487183,52.004417 285.468445,37.189190 285.701508,22.379162 
	C285.718719,21.286781 287.859650,19.356171 289.080048,19.301296 
	C295.222717,19.025097 301.425812,18.822601 307.536224,19.379179 
	C318.314087,20.360901 324.328186,31.139372 320.550323,41.617290 
	C319.922821,43.357670 319.888855,45.729683 320.540039,47.445766 
	C324.799957,58.672157 317.244324,70.003494 305.217010,69.973946 
	C301.956207,69.965935 298.696564,69.480728 295.203796,68.837013 
z"/>
<path fill="#222222" opacity="1.000000" stroke="none" 
	d="
M364.095978,32.033096 
	C364.099792,28.542339 363.881805,25.519382 364.218262,22.559446 
	C364.350098,21.399763 365.724884,20.381367 366.533600,19.298630 
	C367.299683,20.273479 368.737366,21.253815 368.729431,22.222326 
	C368.635590,33.694511 368.978851,45.229496 367.853180,56.614094 
	C367.045593,64.781662 358.412842,70.446182 349.511261,70.467056 
	C340.340851,70.488548 331.825043,64.725761 331.013916,56.205685 
	C329.945099,44.978504 330.294495,33.610138 330.258331,22.301758 
	C330.255219,21.327921 331.928192,20.348717 332.822601,19.371998 
	C333.527130,20.720457 334.815247,22.057404 334.842133,23.419241 
	C335.026123,32.742062 334.809448,42.072651 334.984619,51.395798 
	C335.203461,63.043240 346.886383,69.579254 357.047485,63.856281 
	C361.643982,61.267433 363.972717,57.256870 364.037537,52.010647 
	C364.117767,45.516552 364.081757,39.021019 364.095978,32.033096 
z"/>
<path fill="#1E1E1E" opacity="1.000000" stroke="none" 
	d="
M242.875732,63.960281 
	C242.491013,64.939278 242.388062,65.724014 241.940918,66.123970 
	C240.757034,67.182884 239.424255,68.075317 238.150726,69.033997 
	C238.007675,67.433144 237.288742,65.608719 237.810135,64.265831 
	C243.390839,49.891739 249.137985,35.581734 254.942886,21.296165 
	C255.448395,20.052134 256.688232,19.106493 257.586975,18.022253 
	C258.548889,19.033243 259.919617,19.877443 260.410522,21.080624 
	C266.298309,35.511181 272.113159,49.972687 277.745636,64.504189 
	C278.233459,65.762802 277.291809,67.575493 277.014160,69.130798 
	C275.786346,68.059013 273.979584,67.226547 273.422058,65.877708 
	C268.798828,54.693089 264.410950,43.411236 259.939056,32.163906 
	C259.333160,30.640064 258.655792,29.144646 257.650696,26.791216 
	C252.562775,39.571487 247.781693,51.581055 242.875732,63.960281 
z"/>
<path fill="#1E1E1E" opacity="1.000000" stroke="none" 
	d="
M146.107773,24.388725 
	C143.795792,24.643164 141.547241,24.889050 139.452530,24.431190 
	C131.981094,22.798105 126.002724,24.828228 123.494629,30.126707 
	C121.014549,35.366009 122.230835,40.291363 127.266243,43.568268 
	C130.016876,45.358307 133.180267,46.513733 136.156403,47.957668 
	C139.341537,49.503002 141.635132,52.307915 140.177261,55.450935 
	C139.073792,57.829906 135.815628,60.616024 133.441254,60.686401 
	C129.346527,60.807774 125.126633,59.157032 121.108009,57.807102 
	C119.993309,57.432655 119.403206,55.496521 118.572426,54.276878 
	C120.106941,54.181644 121.897499,53.528061 123.129303,54.092937 
	C127.291679,56.001713 131.336426,57.305214 136.873581,54.793903 
	C134.958969,53.329216 133.770935,52.181690 132.376114,51.406002 
	C129.924408,50.042542 127.229057,49.097874 124.844101,47.637531 
	C118.929436,44.015923 116.678444,38.553024 118.030670,31.855474 
	C119.330544,25.417267 123.396271,20.775267 129.839081,19.899584 
	C134.572128,19.256281 139.589767,20.467955 144.436783,21.159758 
	C145.161530,21.263203 145.646088,23.049543 146.107773,24.388725 
z"/>
<path fill="#1F1F1F" opacity="1.000000" stroke="none" 
	d="
M162.536316,40.193718 
	C166.376007,42.766117 169.857193,45.264992 173.610886,47.248032 
	C177.121658,49.102737 180.121307,51.204178 179.061523,55.595493 
	C177.977798,60.085964 174.273514,61.598209 170.163361,60.868301 
	C166.323502,60.186386 162.598297,58.687641 158.950455,57.228790 
	C158.146103,56.907112 157.880173,55.239132 157.366302,54.191097 
	C158.638657,53.968628 160.236374,53.144222 161.127945,53.626171 
	C165.359116,55.913353 169.575317,57.192291 175.546509,55.057846 
	C173.737030,53.497532 172.681564,52.269585 171.355927,51.518482 
	C169.344528,50.378838 167.031815,49.762447 165.046356,48.587132 
	C157.611649,44.186039 154.944656,38.053753 157.028824,30.592016 
	C159.000305,23.533777 165.729492,18.817318 173.824097,19.206072 
	C176.765305,19.347324 179.736572,20.070347 182.553192,20.969461 
	C183.596420,21.302477 184.235382,22.901901 185.058716,23.923773 
	C183.857101,24.377010 182.627594,25.268682 181.459518,25.194426 
	C178.831635,25.027370 176.245148,24.079920 173.622391,23.984680 
	C164.186325,23.642036 159.027466,30.992220 162.536316,40.193718 
z"/>
<path fill="#1F1F1F" opacity="1.000000" stroke="none" 
	d="
M131.829224,34.863567 
	C134.326691,36.728771 136.800690,38.278271 139.376740,39.633839 
	C147.895020,44.116322 151.330231,50.291065 149.490997,58.000404 
	C147.834183,64.945160 142.758636,69.615410 134.764084,69.794579 
	C129.779175,69.906296 124.711372,68.294304 119.777718,67.066338 
	C118.782181,66.818558 118.222878,64.818039 117.462448,63.625610 
	C118.915512,63.417179 120.409607,62.883011 121.814148,63.059883 
	C126.492325,63.648991 131.159607,65.188789 135.790863,65.047432 
	C140.583984,64.901131 144.053894,61.793579 145.003540,56.711506 
	C146.007217,51.340107 144.176407,47.593746 139.080017,44.784534 
	C136.473389,43.347721 133.321335,42.645233 131.140472,40.768673 
	C129.259598,39.150265 127.000854,35.988049 127.461189,34.146172 
	C128.006104,31.965858 131.078522,29.407131 133.435806,28.942480 
	C136.464539,28.345482 139.915176,29.492447 143.086960,30.279446 
	C143.945770,30.492535 144.454102,32.118137 145.123306,33.095406 
	C143.941742,33.595848 142.778748,34.465004 141.575043,34.525574 
	C138.343491,34.688171 135.094543,34.504932 131.829224,34.863567 
z"/>
<path fill="#1D1D1D" opacity="1.000000" stroke="none" 
	d="
M177.558319,39.361908 
	C182.886124,42.131672 187.199722,45.222961 188.342010,51.346195 
	C189.822662,59.283180 185.718796,66.553406 178.104218,68.996323 
	C171.384644,71.152100 164.930359,69.907478 158.719269,67.165756 
	C157.577652,66.661827 156.991760,64.898964 156.149353,63.717197 
	C157.583298,63.464962 159.058746,62.860847 160.443695,63.024117 
	C165.288712,63.595287 170.129532,65.147087 174.920624,64.966286 
	C179.759277,64.783691 183.044022,61.363953 183.879898,56.350269 
	C184.749268,51.135529 182.616119,47.264877 177.965973,44.837563 
	C175.322037,43.457466 172.145325,42.731529 170.033875,40.805969 
	C168.109039,39.050613 166.101898,35.933331 166.367218,33.679588 
	C166.586746,31.814819 169.898605,29.304382 172.146133,28.933586 
	C175.229340,28.424915 178.644043,29.494225 181.822479,30.272198 
	C182.708221,30.488998 183.261551,32.063927 183.967377,33.015808 
	C182.794601,33.550858 181.625198,34.504013 180.448181,34.513493 
	C179.026749,34.524940 177.616959,33.457256 176.169266,33.363365 
	C174.263199,33.239735 172.325119,33.609390 170.400803,33.766953 
	C170.280823,34.399971 170.160858,35.032986 170.040878,35.666004 
	C172.441833,36.832439 174.842804,37.998875 177.558319,39.361908 
z"/>
<path fill="#1F1F1F" opacity="1.000000" stroke="none" 
	d="
M100.018875,50.641258 
	C95.612801,61.978081 79.745323,65.210289 72.231171,54.818890 
	C71.364731,53.620682 71.530594,51.675987 71.217842,50.077396 
	C72.711861,50.673347 74.605797,50.878880 75.632736,51.930817 
	C80.923347,57.350189 87.870003,57.961674 92.794983,53.168991 
	C97.765030,48.332466 97.655220,40.523479 92.551834,35.876179 
	C87.489685,31.266438 80.307526,32.010845 75.314331,37.454514 
	C74.420715,38.428745 72.778534,38.716354 71.481979,39.320992 
	C71.704910,37.606586 71.339897,35.443310 72.248886,34.252686 
	C77.117172,27.876106 85.271225,26.239143 92.336662,29.859737 
	C99.733063,33.649933 102.672287,41.352310 100.018875,50.641258 
z"/>
<path fill="#151515" opacity="1.000000" stroke="none" 
	d="
M359.064484,53.347061 
	C356.523438,59.455456 352.675934,61.792431 347.442780,60.801727 
	C342.607574,59.886364 339.798004,56.179405 339.726776,50.157478 
	C339.622528,41.344326 339.599274,32.526852 339.795135,23.716856 
	C339.827454,22.263119 341.155518,20.838179 341.884735,19.399925 
	C342.637207,20.817856 344.005981,22.220806 344.040863,23.656179 
	C344.246887,32.132935 344.185638,40.617535 344.124207,49.098846 
	C344.095825,53.018703 344.978302,56.336292 349.661285,56.236801 
	C353.981842,56.145016 354.940582,53.025421 354.912659,49.275078 
	C354.849579,40.793793 354.795929,32.309544 354.984894,23.831993 
	C355.018097,22.341015 356.249115,20.876743 356.927002,19.400150 
	C357.739655,20.764248 359.237671,22.119638 359.255127,23.493822 
	C359.379608,33.299500 359.202087,43.109016 359.064484,53.347061 
z"/>
<path fill="#1F1F1F" opacity="1.000000" stroke="none" 
	d="
M46.519058,29.483879 
	C48.319286,26.653269 49.712761,23.962412 51.567894,21.640383 
	C52.511021,20.459887 54.285164,19.943310 55.683640,19.126608 
	C55.631042,20.715603 56.134102,22.625872 55.432369,23.839544 
	C51.856651,30.023874 48.125492,36.133350 44.131668,42.055191 
	C41.793335,45.522358 40.691822,49.029175 40.945370,53.217705 
	C41.226669,57.864647 41.148880,62.549557 40.901031,67.200546 
	C40.841312,68.321274 39.494656,69.373421 38.739830,70.457108 
	C37.894108,69.437202 36.348362,68.438858 36.316185,67.393906 
	C36.106117,60.571747 35.942719,53.720844 36.393692,46.921093 
	C36.543026,44.669399 38.463245,42.489056 39.727562,40.367733 
	C41.854752,36.798653 44.104885,33.302845 46.519058,29.483879 
z"/>
<path fill="#212121" opacity="1.000000" stroke="none" 
	d="
M23.966862,42.169785 
	C20.098890,35.913807 16.293697,30.055058 12.784870,24.023886 
	C12.042830,22.748423 12.384910,20.842234 12.227479,19.226654 
	C13.662835,19.937780 15.678021,20.266766 16.439432,21.422064 
	C21.375807,28.912088 26.103039,36.543583 30.731108,44.229698 
	C31.531303,45.558632 31.814260,47.362408 31.851181,48.958076 
	C31.982122,54.617577 32.083019,60.291397 31.786152,65.938286 
	C31.704571,67.490135 30.195866,68.966965 29.342022,70.478218 
	C28.590427,69.038246 27.285658,67.633698 27.190775,66.151680 
	C26.904055,61.673321 27.460331,57.123421 26.966848,52.681522 
	C26.583094,49.227306 25.119137,45.893101 23.966862,42.169785 
z"/>
<path fill="#292929" opacity="1.000000" stroke="none" 
	d="
M201.581741,23.728449 
	C201.583862,37.283840 201.585800,50.413532 201.581192,63.543224 
	C201.580780,64.705719 201.846756,65.997665 201.429092,66.995010 
	C200.993851,68.034348 199.880081,68.789520 199.062973,69.668938 
	C198.345200,68.716415 197.104050,67.813431 197.008331,66.802032 
	C196.727676,63.836708 196.900055,60.828255 196.899750,57.836697 
	C196.898605,46.535191 196.821106,35.232460 196.997681,23.933712 
	C197.019958,22.508295 198.381439,21.103811 199.122437,19.689632 
	C199.941574,20.894005 200.760696,22.098377 201.581741,23.728449 
z"/>
<path fill="#242424" opacity="1.000000" stroke="none" 
	d="
M206.003403,44.999977 
	C206.003922,37.501690 205.890930,30.499874 206.107254,23.508247 
	C206.147217,22.216034 207.517624,20.964979 208.273956,19.694923 
	C209.118622,20.901962 210.683151,22.100212 210.698013,23.317387 
	C210.870941,37.478516 210.872192,51.643215 210.708221,65.804535 
	C210.693085,67.112442 209.232407,68.403610 208.442947,69.702553 
	C207.629974,68.300072 206.168655,66.921982 206.114822,65.490952 
	C205.864441,58.835312 206.003616,52.165012 206.003403,44.999977 
z"/>
<path fill="#1D1D1D" opacity="1.000000" stroke="none" 
	d="
M44.543812,19.113632 
	C44.995274,20.327848 45.566975,21.640703 45.143967,22.397753 
	C42.321819,27.448483 39.326950,32.404819 36.304810,37.340763 
	C34.833164,39.744343 33.125710,39.534840 31.732220,37.273598 
	C28.782249,32.486637 25.849642,27.683208 23.134785,22.762466 
	C22.649672,21.883183 23.247185,20.406597 23.344814,19.205805 
	C24.595381,19.642706 26.388645,19.702333 27.000875,20.582998 
	C29.418489,24.060640 31.465599,27.795851 34.048916,32.099918 
	C36.331322,28.266842 38.080853,24.952360 40.220909,21.912842 
	C41.125015,20.628735 42.851318,19.923508 44.543812,19.113632 
z"/>
<path fill="#232323" opacity="1.000000" stroke="none" 
	d="
M310.213776,30.843140 
	C312.664551,34.052753 312.797150,37.328621 310.278351,39.696388 
	C308.575897,41.296722 305.744385,41.932060 303.304077,42.382950 
	C302.453003,42.540199 301.261047,40.852501 300.224762,40.007378 
	C301.156097,39.274952 302.037750,38.464851 303.030975,37.829121 
	C304.369293,36.972523 305.793549,36.250237 307.180939,35.470303 
	C305.576599,34.717419 304.024872,33.796047 302.348816,33.272995 
	C301.293610,32.943691 299.939087,33.515636 298.921448,33.137726 
	C297.472900,32.599800 296.210358,31.560919 294.868347,30.736057 
	C296.114777,29.970026 297.427307,28.468140 298.595459,28.573111 
	C302.410645,28.915949 306.173248,29.844555 310.213776,30.843140 
z"/>
<path fill="#242424" opacity="1.000000" stroke="none" 
	d="
M303.277405,60.868660 
	C301.996674,59.895237 301.112732,58.927578 300.228760,57.959919 
	C301.266815,57.298328 302.289948,56.611713 303.346802,55.981674 
	C304.586060,55.242893 305.854675,54.553303 307.110535,53.842381 
	C305.715851,53.088333 304.396057,52.003956 302.906952,51.666344 
	C301.162506,51.270832 299.210236,51.790974 297.466370,51.394192 
	C296.485443,51.171001 295.743073,49.899670 294.893219,49.100533 
	C295.678162,48.401501 296.427429,47.154587 297.254364,47.100780 
	C300.395630,46.896378 303.643402,46.649242 306.697449,47.228924 
	C310.121216,47.878784 312.222412,50.486195 311.932556,54.103809 
	C311.539825,59.005138 308.217590,60.796028 303.277405,60.868660 
z"/>
<path fill="#171717" opacity="1.000000" stroke="none" 
	d="
M259.678436,65.176910 
	C256.069824,65.525032 252.081131,63.636612 250.515518,68.467140 
	C250.380676,68.883148 248.976868,69.224762 248.323959,69.037643 
	C247.717148,68.863731 247.041443,68.000748 246.890076,67.329697 
	C246.271088,64.585892 249.140121,60.920300 251.982315,60.848412 
	C255.799088,60.751865 259.645721,60.573448 263.426483,60.955402 
	C264.879639,61.102203 266.783722,62.407837 267.401398,63.701557 
	C268.090118,65.143990 267.549011,67.173607 267.543182,68.947647 
	C266.249603,68.070015 265.018250,67.073700 263.642578,66.352654 
	C262.559113,65.784760 261.297821,65.556183 259.678436,65.176910 
z"/>
<path fill="#212121" opacity="1.000000" stroke="none" 
	d="
M259.727905,44.500832 
	C260.479034,46.189350 261.051971,47.558353 261.611389,48.932850 
	C264.319946,55.588005 263.917969,56.412910 257.324921,56.099743 
	C255.560822,56.015945 253.857895,54.644135 252.126892,53.863632 
	C253.536789,52.785122 254.946686,51.706615 256.543762,50.484928 
	C256.543762,48.635555 256.543762,46.205154 256.543762,43.774754 
	C257.543671,43.911118 258.543549,44.047485 259.727905,44.500832 
z"/>
<path fill="#F1F1F1" opacity="1.000000" stroke="none" 
	d="
M67.563637,88.204163 
	C68.743690,87.944977 69.620918,87.775352 71.249870,87.460381 
	C66.425720,91.154373 65.089127,90.735626 63.246307,84.995659 
	C64.928238,86.377434 66.094521,87.335579 67.563637,88.204163 
z"/>
</svg>